<svg width="33" height="29" viewBox="0 0 33 29" fill="none" xmlns="http://www.w3.org/2000/svg">
<path fill-rule="evenodd" clip-rule="evenodd" d="M28.875 4.125H25.7812L24.75 2.0625C24.1426 0.863156 23.826 0 22.6875 0H10.3125C9.174 0 8.79656 0.983812 8.25 2.0625L7.21875 4.125H4.125C1.84697 4.125 0 5.97197 0 8.25V24.75C0 27.028 1.84697 28.875 4.125 28.875H28.875C31.153 28.875 33 27.028 33 24.75V8.25C33 5.97197 31.153 4.125 28.875 4.125ZM16.5 24.75C11.9439 24.75 8.25 21.0561 8.25 16.5C8.25 11.9439 11.9439 8.25 16.5 8.25C21.0561 8.25 24.75 11.9439 24.75 16.5C24.75 21.0561 21.0561 24.75 16.5 24.75ZM16.5 10.3125C13.0835 10.3125 10.3125 13.0835 10.3125 16.5C10.3125 19.9165 13.0835 22.6875 16.5 22.6875C19.9165 22.6875 22.6875 19.9165 22.6875 16.5C22.6875 13.0835 19.9165 10.3125 16.5 10.3125Z" fill="black"/>
</svg>
